<?xml version="1.0" encoding="utf-8"?>
<!-- Generator: Adobe Illustrator 23.0.3, SVG Export Plug-In . SVG Version: 6.00 Build 0)  -->
<svg version="1.1" id="Layer_1" xmlns="http://www.w3.org/2000/svg" xmlns:xlink="http://www.w3.org/1999/xlink" x="0px" y="0px"
	 viewBox="0 0 512 512" style="enable-background:new 0 0 512 512;" xml:space="preserve">
<style type="text/css">
	.st0{fill:#FFFFFF;}
</style>
<g>
	<path d="M92.8,418.4c-7.8,0-14.1-6.3-14.1-14.1v-45c0-0.2-0.1-0.4-0.2-0.5c-23.6-37.4-34.4-93-39.2-133.1c-0.1-0.4-0.4-0.8-0.8-0.9
		C16.8,220.2,1,200.6,1,178.3c0-26.3,21.4-47.7,47.7-47.7s47.7,21.4,47.7,47.7c0,12.2-4.6,23.8-13,32.7c-0.4,0.4-0.4,1,0,1.4
		c15.4,17.2,37.4,27.1,60.3,27.1c37.8,0,71.1-26.9,79.1-63.8c0.1-0.3,0-0.7-0.3-0.9c-9.2-9.1-14.2-21.1-14.2-33.9
		c0-26.3,21.4-47.7,47.7-47.7c26.3,0,47.7,21.4,47.7,47.7c0,12.8-5.1,24.9-14.2,33.9c-0.2,0.2-0.3,0.6-0.3,0.9
		c8,37,41.2,63.8,79.1,63.8c23,0,44.9-9.9,60.3-27.1c0.3-0.4,0.3-1,0-1.4c-8.4-8.9-13-20.5-13-32.7c0-26.3,21.4-47.7,47.7-47.7
		c26.3,0,47.7,21.4,47.7,47.7c0,22.2-15.8,41.8-37.5,46.6c-0.4,0.1-0.7,0.4-0.8,0.9c-4.9,40.1-15.6,95.7-39.2,133.1
		c-0.1,0.2-0.2,0.3-0.2,0.5v45c0,7.8-6.3,14.1-14.1,14.1H92.8z M107.8,369c-0.6,0-1,0.4-1,1v19.3c0,0.6,0.4,1,1,1h296.3
		c0.6,0,1-0.4,1-1V370c0-0.6-0.4-1-1-1H107.8z M70.8,239.9c-0.2,0-0.3,0-0.5,0.1c-0.4,0.2-0.6,0.6-0.5,1
		c6.6,42.8,16.8,76.2,30.3,99.2c0.2,0.3,0.5,0.5,0.9,0.5H411c0.4,0,0.7-0.2,0.9-0.5c13.6-23,23.8-56.4,30.4-99.3
		c0.1-0.4-0.1-0.8-0.5-1c-0.2-0.1-0.3-0.1-0.5-0.1c-0.2,0-0.5,0.1-0.7,0.3c-20,17.7-45.6,27.4-72.2,27.4
		c-48.3,0-91.4-32.4-104.8-78.9c-0.1-0.4-0.5-0.7-1-0.7c0,0-0.1,0-0.1,0c-2.2,0.3-4.3,0.4-6.4,0.4s-4.2-0.1-6.4-0.4c0,0-0.1,0-0.1,0
		c-0.4,0-0.8,0.3-1,0.7c-13.4,46.4-56.5,78.9-104.8,78.9c-26.6,0-52.3-9.7-72.2-27.4C71.3,240,71.1,239.9,70.8,239.9z M463.3,158.8
		c-10.8,0-19.6,8.8-19.6,19.6c0,10.8,8.8,19.6,19.6,19.6c10.8,0,19.6-8.8,19.6-19.6C482.8,167.5,474.1,158.8,463.3,158.8z
		 M48.7,158.8c-10.8,0-19.6,8.8-19.6,19.6c0,10.8,8.8,19.6,19.6,19.6c10.8,0,19.6-8.8,19.6-19.6C68.3,167.5,59.5,158.8,48.7,158.8z
		 M256,121.2c-10.8,0-19.6,8.8-19.6,19.6c0,10.8,8.8,19.6,19.6,19.6c10.8,0,19.6-8.8,19.6-19.6C275.6,129.9,266.8,121.2,256,121.2z"
		/>
	<path class="st0" d="M256,94c25.8,0,46.7,21,46.7,46.7c0,12.6-4.9,24.4-13.9,33.2c-0.5,0.5-0.7,1.2-0.6,1.8
		c8.1,37.5,41.7,64.6,80.1,64.6c23.2,0,45.5-10,61-27.4c0.7-0.8,0.7-1.9,0-2.7c-8.2-8.7-12.7-20.1-12.7-32c0-25.8,21-46.7,46.7-46.7
		c25.8,0,46.7,21,46.7,46.7c0,10.7-3.7,21.2-10.5,29.5c-6.7,8.2-16,13.9-26.2,16.2c-0.8,0.2-1.5,0.9-1.6,1.7
		c-4.8,40-15.6,95.4-39.1,132.7c-0.2,0.3-0.3,0.7-0.3,1.1v45c0,7.2-5.9,13.1-13.1,13.1H92.8c-7.2,0-13.1-5.9-13.1-13.1v-45
		c0-0.4-0.1-0.7-0.3-1.1c-23.5-37.2-34.3-92.7-39.1-132.7c-0.1-0.8-0.7-1.5-1.6-1.7c-10.2-2.2-19.5-8-26.2-16.2
		C5.7,199.5,2,189,2,178.3c0-25.8,21-46.7,46.7-46.7c25.8,0,46.7,21,46.7,46.7c0,11.9-4.5,23.3-12.8,32c-0.7,0.8-0.7,1.9,0,2.7
		c15.6,17.4,37.8,27.4,61,27.4c38.3,0,72-27.2,80.1-64.6c0.1-0.7-0.1-1.4-0.5-1.8c-9-8.9-13.9-20.7-13.9-33.2
		C209.3,115,230.2,94,256,94 M256,161.3c11.3,0,20.6-9.2,20.6-20.6c0-11.3-9.2-20.6-20.6-20.6c-11.3,0-20.6,9.2-20.6,20.6
		C235.4,152.1,244.7,161.3,256,161.3 M463.3,198.9c11.3,0,20.6-9.2,20.6-20.6c0-11.3-9.2-20.6-20.6-20.6c-11.3,0-20.6,9.2-20.6,20.6
		C442.7,189.7,451.9,198.9,463.3,198.9 M48.7,198.9c11.3,0,20.6-9.2,20.6-20.6c0-11.3-9.2-20.6-20.6-20.6
		c-11.3,0-20.6,9.2-20.6,20.6C28.2,189.7,37.4,198.9,48.7,198.9 M256,187.4c-2,0-4.1-0.1-6.3-0.4c-0.1,0-0.2,0-0.3,0
		c-0.9,0-1.7,0.6-1.9,1.4c-6.4,22.1-20,41.9-38.3,56c-19,14.5-41.6,22.2-65.5,22.2c-26.4,0-51.8-9.6-71.5-27.1
		c-0.4-0.3-0.8-0.5-1.3-0.5c-0.3,0-0.7,0.1-1,0.2c-0.7,0.4-1.1,1.2-1,2.1c6.6,42.9,16.8,76.5,30.5,99.6c0.4,0.6,1,1,1.7,1H411
		c0.7,0,1.4-0.4,1.7-1c13.7-23.2,23.9-56.7,30.5-99.6c0.1-0.8-0.3-1.7-1-2.1c-0.3-0.2-0.6-0.2-1-0.2c-0.5,0-1,0.2-1.3,0.5
		c-19.8,17.5-45.2,27.2-71.6,27.2c-23.9,0-46.5-7.7-65.5-22.2c-18.4-14-32-33.9-38.3-56c-0.2-0.9-1-1.4-1.9-1.4c-0.1,0-0.2,0-0.3,0
		C260.1,187.3,258,187.4,256,187.4 M107.8,391.3h296.3c1.1,0,2-0.9,2-2V370c0-1.1-0.9-2-2-2H107.8c-1.1,0-2,0.9-2,2v19.3
		C105.8,390.4,106.7,391.3,107.8,391.3 M256,92c-26.9,0-48.7,21.9-48.7,48.7c0,13.5,5.6,25.8,14.5,34.7c-7.8,36-39.8,63.1-78.1,63.1
		c-23.6,0-44.9-10.3-59.6-26.7c8.2-8.7,13.3-20.5,13.3-33.4c0-26.9-21.9-48.7-48.7-48.7S0,151.5,0,178.3c0,23.3,16.4,42.8,38.3,47.6
		c5.2,42.8,16.2,96.8,39.4,133.5v45c0,8.3,6.8,15.1,15.1,15.1h326.5c8.3,0,15.1-6.8,15.1-15.1v-45c23.2-36.7,34.2-90.7,39.4-133.5
		c21.9-4.8,38.3-24.3,38.3-47.6c0-26.9-21.9-48.7-48.7-48.7c-26.9,0-48.7,21.9-48.7,48.7c0,12.9,5.1,24.7,13.3,33.4
		c-14.6,16.4-35.9,26.7-59.6,26.7c-38.3,0-70.3-27.1-78.1-63.1c9-8.8,14.5-21.1,14.5-34.7C304.7,113.9,282.9,92,256,92L256,92z
		 M256,159.3c-10.2,0-18.6-8.3-18.6-18.6c0-10.2,8.3-18.6,18.6-18.6s18.6,8.3,18.6,18.6C274.6,151,266.2,159.3,256,159.3L256,159.3z
		 M463.3,196.9c-10.2,0-18.6-8.3-18.6-18.6c0-10.2,8.3-18.6,18.6-18.6c10.2,0,18.6,8.3,18.6,18.6
		C481.8,188.6,473.5,196.9,463.3,196.9L463.3,196.9z M48.7,196.9c-10.2,0-18.6-8.3-18.6-18.6c0-10.2,8.3-18.6,18.6-18.6
		c10.2,0,18.6,8.3,18.6,18.6C67.3,188.6,59,196.9,48.7,196.9L48.7,196.9z M256,189.4c2.2,0,4.4-0.2,6.5-0.4
		c13.2,45.9,55.6,79.6,105.8,79.6c27.9,0,53.5-10.5,72.9-27.7c-5.2,34.1-14.3,71.9-30.2,98.9H101c-15.9-26.9-25-64.7-30.2-98.9
		c19.4,17.2,44.9,27.6,72.9,27.6c50.1,0,92.5-33.7,105.8-79.6C251.6,189.3,253.8,189.4,256,189.4L256,189.4z M107.8,389.3V370h296.3
		v19.3H107.8L107.8,389.3z"/>
</g>
</svg>
