<?xml version="1.0" encoding="utf-8"?>
<!-- Generator: Adobe Illustrator 23.0.3, SVG Export Plug-In . SVG Version: 6.00 Build 0)  -->
<svg version="1.1" id="Layer_1" xmlns="http://www.w3.org/2000/svg" xmlns:xlink="http://www.w3.org/1999/xlink" x="0px" y="0px"
	 viewBox="0 0 512 512" style="enable-background:new 0 0 512 512;" xml:space="preserve">
<style type="text/css">
	.st0{fill:#6988B0;}
	.st1{fill:#FFFFFF;}
</style>
<path class="st0" d="M437,75C388.7,26.6,324.4,0,256,0S123.3,26.6,75,75S0,187.6,0,256s26.6,132.7,75,181s112.6,75,181,75
	s132.7-26.6,181-75s75-112.6,75-181S485.4,123.3,437,75z"/>
<polygon class="st1" points="270.3,241.7 270.3,237.7 270.3,159.5 241.7,159.5 241.7,237.7 241.7,241.7 237.7,241.7 159.5,241.7 
	159.5,270.3 237.7,270.3 241.7,270.3 241.7,274.3 241.7,352.5 270.3,352.5 270.3,274.3 270.3,270.3 274.3,270.3 352.5,270.3 
	352.5,241.7 274.3,241.7 "/>
</svg>
